<svg width="16" height="16" viewBox="0 0 16 16" fill="none" xmlns="http://www.w3.org/2000/svg">
<path d="M8.00049 1.40674C11.0991 1.40693 12.7073 3.56941 13.4321 4.84717L14.0288 5.8999H11.1997C11.1815 5.89969 11.1665 5.88495 11.1665 5.8667C11.1665 5.84848 11.1815 5.83371 11.1997 5.8335H13.8872L13.4937 5.09717C12.8514 3.897 11.2586 1.47335 8.00049 1.47314C4.02055 1.47314 1.47314 4.73547 1.47314 8.00049C1.47336 11.2654 4.02072 14.5269 8.00049 14.5269C9.91555 14.5267 11.4978 13.7719 12.6245 12.6255C13.2299 12.0096 13.7045 11.2804 14.0278 10.4946C14.0348 10.4777 14.0538 10.4692 14.0708 10.4761C14.0878 10.4831 14.0964 10.503 14.0894 10.52C13.7628 11.3136 13.2839 12.0501 12.6724 12.6724C11.5335 13.8309 9.93419 14.5932 8.00049 14.5933C3.97908 14.5933 1.40695 11.2972 1.40674 8.00049C1.40674 4.70366 3.97891 1.40674 8.00049 1.40674ZM14.3999 2.6333C14.4182 2.6333 14.433 2.64824 14.4331 2.6665V5.8667C14.4331 5.88508 14.4183 5.8999 14.3999 5.8999H14.3667V2.6665C14.3668 2.64831 14.3817 2.6334 14.3999 2.6333Z" fill="#09090B" stroke="#18181B"/>
</svg>
